P2
2 2
256
255 115 112 80 