P2
2 1
256
149 41 